<svg id="visual" viewBox="0 0 900 600" width="900" height="600" xmlns="http://www.w3.org/2000/svg" xmlns:xlink="http://www.w3.org/1999/xlink" version="1.1"><rect x="0" y="0" width="900" height="600" fill="#02080c"></rect><defs><linearGradient id="grad1_0" x1="33.3%" y1="0%" x2="100%" y2="100%"><stop offset="20%" stop-color="#02080c" stop-opacity="1"></stop><stop offset="80%" stop-color="#02080c" stop-opacity="1"></stop></linearGradient></defs><defs><linearGradient id="grad2_0" x1="0%" y1="0%" x2="66.7%" y2="100%"><stop offset="20%" stop-color="#02080c" stop-opacity="1"></stop><stop offset="80%" stop-color="#02080c" stop-opacity="1"></stop></linearGradient></defs><g transform="translate(900, 0)"><path d="M0 540.8C-76.9 541.4 -153.8 542 -207 499.7C-260.2 457.4 -289.7 372.2 -308.3 308.3C-326.9 244.4 -334.5 201.7 -371.4 153.8C-408.3 106 -474.6 53 -540.8 0L0 0Z" fill="#660c0d"></path></g><g transform="translate(0, 600)"><path d="M0 -540.8C63.9 -522.9 127.9 -505 200.5 -484.1C273.2 -463.2 354.6 -439.3 382.4 -382.4C410.2 -325.5 384.4 -235.7 401.9 -166.5C419.4 -97.2 480.1 -48.6 540.8 0L0 0Z" fill="#660c0d"></path></g></svg>