<svg id="visual" viewBox="0 0 900 600" width="900" height="600" xmlns="http://www.w3.org/2000/svg" xmlns:xlink="http://www.w3.org/1999/xlink" version="1.1"><rect x="0" y="0" width="900" height="600" fill="#f6ab50"></rect><defs><linearGradient id="grad1_0" x1="33.3%" y1="0%" x2="100%" y2="100%"><stop offset="20%" stop-color="#8c7575" stop-opacity="1"></stop><stop offset="80%" stop-color="#8c7575" stop-opacity="1"></stop></linearGradient></defs><defs><linearGradient id="grad1_1" x1="33.3%" y1="0%" x2="100%" y2="100%"><stop offset="20%" stop-color="#8c7575" stop-opacity="1"></stop><stop offset="80%" stop-color="#bb8174" stop-opacity="1"></stop></linearGradient></defs><defs><linearGradient id="grad1_2" x1="33.3%" y1="0%" x2="100%" y2="100%"><stop offset="20%" stop-color="#e09267" stop-opacity="1"></stop><stop offset="80%" stop-color="#bb8174" stop-opacity="1"></stop></linearGradient></defs><defs><linearGradient id="grad1_3" x1="33.3%" y1="0%" x2="100%" y2="100%"><stop offset="20%" stop-color="#e09267" stop-opacity="1"></stop><stop offset="80%" stop-color="#f6ab50" stop-opacity="1"></stop></linearGradient></defs><defs><linearGradient id="grad2_0" x1="0%" y1="0%" x2="66.7%" y2="100%"><stop offset="20%" stop-color="#8c7575" stop-opacity="1"></stop><stop offset="80%" stop-color="#8c7575" stop-opacity="1"></stop></linearGradient></defs><defs><linearGradient id="grad2_1" x1="0%" y1="0%" x2="66.7%" y2="100%"><stop offset="20%" stop-color="#bb8174" stop-opacity="1"></stop><stop offset="80%" stop-color="#8c7575" stop-opacity="1"></stop></linearGradient></defs><defs><linearGradient id="grad2_2" x1="0%" y1="0%" x2="66.7%" y2="100%"><stop offset="20%" stop-color="#bb8174" stop-opacity="1"></stop><stop offset="80%" stop-color="#e09267" stop-opacity="1"></stop></linearGradient></defs><defs><linearGradient id="grad2_3" x1="0%" y1="0%" x2="66.7%" y2="100%"><stop offset="20%" stop-color="#f6ab50" stop-opacity="1"></stop><stop offset="80%" stop-color="#e09267" stop-opacity="1"></stop></linearGradient></defs><g transform="translate(900, 0)"><path d="M0 378.6C-65 367.2 -129.9 355.7 -188 325.6C-246.1 295.5 -297.2 246.7 -327.9 189.3C-358.5 131.9 -368.5 66 -378.6 0L0 0Z" fill="#ed9d5c"></path><path d="M0 283.9C-48.7 275.4 -97.4 266.8 -141 244.2C-184.6 221.6 -222.9 185 -245.9 142C-268.9 98.9 -276.4 49.5 -283.9 0L0 0Z" fill="#cf896f"></path><path d="M0 189.3C-32.5 183.6 -65 177.9 -94 162.8C-123 147.8 -148.6 123.3 -163.9 94.6C-179.2 66 -184.3 33 -189.3 0L0 0Z" fill="#a47b76"></path><path d="M0 94.6C-16.2 91.8 -32.5 88.9 -47 81.4C-61.5 73.9 -74.3 61.7 -82 47.3C-89.6 33 -92.1 16.5 -94.6 0L0 0Z" fill="#8c7575"></path></g><g transform="translate(0, 600)"><path d="M0 -378.6C61 -360.2 121.9 -341.9 180.5 -312.6C239.1 -283.4 295.2 -243.2 327.9 -189.3C360.5 -135.4 369.5 -67.7 378.6 0L0 0Z" fill="#ed9d5c"></path><path d="M0 -283.9C45.7 -270.2 91.4 -256.4 135.4 -234.5C179.3 -212.5 221.4 -182.4 245.9 -142C270.4 -101.5 277.1 -50.8 283.9 0L0 0Z" fill="#cf896f"></path><path d="M0 -189.3C30.5 -180.1 61 -170.9 90.2 -156.3C119.5 -141.7 147.6 -121.6 163.9 -94.6C180.2 -67.7 184.8 -33.8 189.3 0L0 0Z" fill="#a47b76"></path><path d="M0 -94.6C15.2 -90.1 30.5 -85.5 45.1 -78.2C59.8 -70.8 73.8 -60.8 82 -47.3C90.1 -33.8 92.4 -16.9 94.6 0L0 0Z" fill="#8c7575"></path></g></svg>