<svg id="visual" viewBox="0 0 900 600" width="900" height="600" xmlns="http://www.w3.org/2000/svg" xmlns:xlink="http://www.w3.org/1999/xlink" version="1.1"><rect x="0" y="0" width="900" height="600" fill="#001220"></rect><defs><linearGradient id="grad1_0" x1="33.3%" y1="0%" x2="100%" y2="100%"><stop offset="20%" stop-color="#001220" stop-opacity="1"></stop><stop offset="80%" stop-color="#001220" stop-opacity="1"></stop></linearGradient></defs><defs><linearGradient id="grad2_0" x1="0%" y1="0%" x2="66.7%" y2="100%"><stop offset="20%" stop-color="#001220" stop-opacity="1"></stop><stop offset="80%" stop-color="#001220" stop-opacity="1"></stop></linearGradient></defs><g transform="translate(900, 0)"><path d="M0 486.7C-61.2 478.8 -122.5 470.8 -186.3 449.7C-250.1 428.6 -316.4 394.3 -339.4 339.4C-362.4 284.5 -342.1 208.9 -359.4 148.9C-376.7 88.8 -431.7 44.4 -486.7 0L0 0Z" fill="#FBAE3C"></path></g><g transform="translate(0, 600)"><path d="M0 -486.7C65.4 -481.3 130.8 -475.8 186.3 -449.7C241.8 -423.6 287.4 -376.9 330.2 -330.2C373.1 -283.5 413.2 -236.8 438.8 -181.8C464.5 -126.7 475.6 -63.4 486.7 0L0 0Z" fill="#FBAE3C"></path></g></svg>